<?xml version="1.0" encoding="utf-8"?>
<!-- Generator: Adobe Illustrator 26.0.3, SVG Export Plug-In . SVG Version: 6.00 Build 0)  -->
<svg version="1.1" id="Layer_1" xmlns="http://www.w3.org/2000/svg" xmlns:xlink="http://www.w3.org/1999/xlink" x="0px" y="0px"
	 viewBox="0 0 598.08 389.76" style="enable-background:new 0 0 598.08 389.76;" xml:space="preserve">
<style type="text/css">
	.st0{fill:#FCB34C;}
	.st1{fill:#0D0D0D;}
	.st2{fill:#0E0E0E;}
	.st3{fill:#100F10;}
	.st4{fill:#121112;}
	.st5{fill:#151515;}
	.st6{fill:#121212;}
	.st7{fill:#131313;}
	.st8{fill:#121213;}
	.st9{fill:#141415;}
	.st10{fill:#1B1B1B;}
	.st11{fill:#1A191A;}
	.st12{fill:#232323;}
	.st13{fill:#171617;}
	.st14{fill:#19191A;}
	.st15{fill:#161616;}
	.st16{fill:#191819;}
	.st17{fill:#171717;}
	.st18{fill:#252526;}
	.st19{fill:#2C2B2D;}
	.st20{fill:#29292A;}
	.st21{fill:#2F2E30;}
	.st22{fill:#231F20;}
	.st23{fill:#242020;}
	.st24{fill:#241F20;}
	.st25{fill:#242021;}
	.st26{fill:#282626;}
</style>
<g>
	<g>
		<path class="st0" d="M298.91,0.11C397.2,0.11,495.5,0.13,593.79,0c3.71-0.01,4.29,0.89,4.29,4.38
			c-0.11,126.99-0.1,253.99,0,380.98c0,3.43-0.5,4.4-4.27,4.4c-196.59-0.12-393.18-0.12-589.77-0.01c-3.5,0-4.04-0.8-4.04-4.12
			C0.11,258.63,0.11,131.64,0,4.65C0,1.02,0.64,0,4.52,0C102.65,0.13,200.78,0.11,298.91,0.11z"/>
		<path class="st1" d="M480.22,285.07c-16.84,9.73-35.1,16.02-53.52,21.84c-19,6.01-38.42,10.26-58.17,13.04
			c-12.15,1.71-24.3,3.25-36.57,4.09c-13.99,0.95-27.97,2.24-41.99,1.77c-17.7-0.59-35.35-1.76-53-3.68
			c-23.63-2.58-46.69-7.58-69.64-13.39c-0.24-0.06-0.38-0.48-0.57-0.73c-0.39-1.42,0.35-2.21,1.54-2.75
			c5.59-0.21,10.76,1.89,16.02,3.2c21.01,5.26,42.32,8.85,63.85,10.69c19,1.62,38.09,2.98,57.21,2.27
			c36.28-1.36,72.23-5.37,107.35-14.9c20.71-5.62,40.85-12.96,60.19-22.38c2.48-1.21,4.79-3.14,7.89-2.52
			C482.56,283.1,481.43,284.09,480.22,285.07z"/>
		<path class="st1" d="M166.8,79.07c16-4.38,32.18-7.97,48.49-10.91c8.95-1.61,18.07-2.34,27.13-3.26
			c11.06-1.12,22.14-2.05,33.22-2.98c1.97-0.16,3.97,0.07,5.95,0.13c7.79,0.78,15.6,0.08,23.39,0.38c1.55,0.06,4.03-1.03,3.85,2.22
			c-1.76,2.07-4.23,1.69-6.48,1.67c-29.92-0.26-59.65,1.71-89.16,6.86c-12.93,2.26-25.73,5.02-38.39,8.44
			c-2.07,0.56-4.09,1.44-6.33,0.96C166.91,81.89,165.86,80.95,166.8,79.07z"/>
		<path class="st2" d="M530.86,141.6c14.09,16.16,22.16,34.74,21.07,56.37c-0.61,12.11-4.41,23.61-11,33.96
			c-1.8,2.83-3.05,6.08-5.74,8.31c-1.28,0.39-1.99-0.25-2.45-1.35c0.2-3.53,2.69-6.01,4.36-8.78c7.09-11.77,11.11-24.3,10.69-38.17
			c-0.47-15.66-6.42-29.25-15.42-41.74c-1.63-2.27-3.84-4.16-4.57-7.01C528.2,141.48,529.43,141.35,530.86,141.6z"/>
		<path class="st1" d="M308.52,64.71c-0.48-2.4-2.41-1.81-3.94-1.82c-6.09-0.05-12.18,0.01-18.27-0.04c-1.59-0.01-3.32,0.5-4.71-0.8
			c16.04-0.92,32.11-0.22,48.05,1.05c15.72,1.26,31.53,2.48,47.07,5.64c1.61,0.33,3.04,1.08,4.64,1.29
			c0.19,1.47-0.64,2.24-1.87,2.74c-2.29,0.72-4.58,0.33-6.87-0.05c-17.63-2.87-35.3-5.34-53.22-5.52
			C315.72,67.16,311.75,67.24,308.52,64.71z"/>
		<path class="st3" d="M39.9,212.58c-5.07-15.72-3.42-31.12,2.7-46.12c3.63-8.9,8.35-17.26,15.23-24.2
			c1.17,0.44,1.68,1.33,1.72,2.54c-1.17,4.46-4.65,7.53-6.96,11.31c-9.66,15.87-13.71,32.75-9.97,51.19
			c0.2,0.97,0.34,1.95,0.14,2.94C42.42,211.74,40.81,211.73,39.9,212.58z"/>
		<path class="st4" d="M480.22,285.07c0.32-1.04,0.64-2.08,0.95-3.13c-0.14-2.79,2.24-3.55,3.99-4.48
			c12.84-6.79,23.92-15.94,34.75-25.44c3.95-3.47,6.33-8.52,11.15-11.15c1.11-0.07,1.92,0.37,2.33,1.43
			c-3.63,6.38-8.92,11.36-14.24,16.2c-11.49,10.45-24.64,18.59-37.96,26.46C480.94,285.11,480.55,285.04,480.22,285.07z"/>
		<path class="st5" d="M85.87,116.65c16.79-12.49,35.73-20.91,54.94-28.83c0.58-0.24,1.31-0.12,1.98-0.16
			c0.62,0.56,0.8,1.27,0.72,2.06c-0.4,1.67-1.75,2.37-3.16,2.91c-17.59,6.79-34.2,15.48-49.99,25.77c-0.56,0.37-1.21,0.54-1.88,0.64
			C87.03,118.88,86.22,118.02,85.87,116.65z"/>
		<path class="st6" d="M167.88,305.67c-0.38,0.78-0.75,1.57-1.13,2.35c-11.78-3.05-23.11-7.39-34.43-11.81
			c-7.71-3.01-15.15-6.47-22.4-10.4c-0.14-1.71,0.95-2.29,2.37-2.56c4.44,0.43,7.85,3.34,11.82,4.9
			c13.22,5.21,26.21,11.05,39.96,14.86C165.6,303.43,167.41,303.65,167.88,305.67z"/>
		<path class="st7" d="M418.3,78.02c14.83,4.39,29.52,9.13,43.59,15.65c1.94,0.9,3.67,1.98,5.34,3.24c0.59,0.72,0.51,1.42-0.08,2.1
			c-2.11,0.91-3.89-0.28-5.68-1.01c-14.12-5.72-28.18-11.57-42.98-15.38c-1.28-0.33-2.55-0.78-3.31-2.01
			C414.96,78.24,417.06,78.65,418.3,78.02z"/>
		<path class="st7" d="M530.86,141.6c-0.88,0.32-1.77,0.65-2.65,0.97c-1.97,0.11-2.88-1.39-4.01-2.58
			c-9.18-9.71-19.74-17.72-30.9-24.98c-1.77-1.15-3.95-1.89-4.62-4.26c0.05-1.1,0.52-1.89,1.59-2.27
			C505.82,117.06,519.55,127.86,530.86,141.6z"/>
		<path class="st8" d="M87.82,272.14c-10.89-7.26-21.23-15.14-28.98-25.9c0.71-0.9,1.69-1.03,2.74-0.92
			c4.59,2.48,7.17,7.15,11.22,10.26c4.71,3.61,9.19,7.5,14,10.99c1.56,1.13,3.46,2.1,3.42,4.49
			C89.66,271.95,89.03,272.69,87.82,272.14z"/>
		<path class="st9" d="M85.87,116.65c1.01,0.39,1.7,1.08,2.08,2.09c0.28,1.46-0.85,2.06-1.74,2.73
			c-8.5,6.39-16.64,13.17-23.83,21.02c-0.67,0.73-1.35,1.5-2.52,1.28c-0.66-1-1.49-1.96-0.93-3.3
			C66.97,131.47,75.71,123.26,85.87,116.65z"/>
		<path class="st10" d="M490.27,108.48c-0.37,0.77-0.74,1.54-1.12,2.31c-1.6,0.6-2.95-0.19-4.23-0.9
			c-5.07-2.82-10.14-5.65-15.36-8.21c-1.14-0.56-2.5-1.12-2.38-2.82c0.01-0.65,0.03-1.3,0.04-1.95c4.3-0.03,7.39,2.88,10.98,4.54
			C482.45,103.4,486.56,105.61,490.27,108.48z"/>
		<path class="st11" d="M111.99,284c-0.69,0.6-1.38,1.2-2.07,1.81c-6.21-2.66-11.86-6.23-17.11-10.46c-0.46-0.68-0.56-1.4-0.21-2.17
			c0.24-0.24,0.56-0.59,0.79-0.51C100.41,275.1,107.12,278.05,111.99,284z"/>
		<path class="st12" d="M62.02,246.17c-1.06,0.02-2.12,0.04-3.18,0.06c-4.64-4.22-8.03-9.36-10.87-14.89
			c-0.8-1.35-0.37-2.39,0.8-3.26c1.2-0.31,1.91,0.44,2.42,1.28c3.1,5.09,6.53,9.94,10.37,14.5
			C62.08,244.52,62.37,245.31,62.02,246.17z"/>
		<path class="st13" d="M49.04,228.14c-0.36,1.07-0.72,2.14-1.08,3.22c-3.84-5.77-6.61-11.99-8.06-18.78
			c0.04-1.35,0.45-2.13,1.94-1.26c1.08,0.17,1.78,0.9,2.1,1.82C45.69,218.12,48.46,222.76,49.04,228.14z"/>
		<path class="st14" d="M380.28,72.18c0.36-0.72,0.72-1.43,1.08-2.15c6.1,0.93,12.29,1.42,18.1,3.75c0.33,1.31,0.38,2.49-1.29,2.94
			C391.98,76.11,385.63,76.1,380.28,72.18z"/>
		<path class="st15" d="M399.24,76.15c0.06-0.79-0.9-1.68,0.22-2.37c6.5,0.46,12.49,3.13,18.84,4.24c-1.08,0.64-2.16,1.27-3.25,1.91
			C409.25,80.89,403.95,79.75,399.24,76.15z"/>
		<path class="st16" d="M152.81,83.97c3.19-1.48,6.37-2.98,9.97-3.17c1.82-0.74,3.39-1.01,3.41,1.75c-3.47,3.26-7.8,3.87-12.29,4.02
			C152.75,86.03,152,85.32,152.81,83.97z"/>
		<path class="st17" d="M152.81,83.97c0.08,0.92,0.44,1.64,1.36,1.98c-3.06,3.34-6.48,5.66-11.31,3.92
			c-0.02-0.74-0.05-1.47-0.07-2.21C145.77,85.47,149.28,84.68,152.81,83.97z"/>
		<path class="st18" d="M93.05,272.71c-0.08,0.88-0.16,1.76-0.24,2.64c-2.08-0.43-3.38-2.06-4.99-3.21
			c0.74-0.36,1.48-0.72,2.23-1.09C91.91,270.05,92.7,270.98,93.05,272.71z"/>
		<path class="st19" d="M533.4,242.3c-0.72-0.36-1.44-0.73-2.16-1.09c-0.54-1.64,0.31-2.09,1.75-2.04c0.74,0.36,1.48,0.72,2.22,1.08
			C534.6,240.94,534,241.62,533.4,242.3z"/>
		<path class="st20" d="M165.78,82.63c-0.16-1.99-1.66-1.78-3-1.83c0.96-1.46,2.87-0.71,4.02-1.73c0.33,0.88,0.66,1.76,0.99,2.63
			C167.4,82.63,166.9,83.3,165.78,82.63z"/>
		<path class="st21" d="M58.93,140.47c0.36,1.07,0.72,2.14,1.08,3.21c0.14,0.79-0.21,1.11-0.99,1c-0.39-0.81-0.79-1.61-1.18-2.42
			C57.83,141.44,58.01,140.73,58.93,140.47z"/>
		<path class="st0" d="M59.03,144.68c0.33-0.33,0.66-0.67,0.99-1c8.05-9.72,17.78-17.56,27.94-24.94
			c14.09-9.48,28.71-17.98,44.66-24.04c3.52-1.34,6.83-3.21,10.24-4.83c4.25,0.07,7.57-2.54,11.31-3.92
			c3.87-1.11,7.74-2.22,11.61-3.32c0.94,0.27,1.4-0.48,2.01-0.92c10.25-2.37,20.49-4.75,30.75-7.1c11.43-2.62,23.02-4.2,34.62-5.82
			c12.53-1.74,25.13-2.25,37.71-3.19c12.58-0.94,25.13-0.06,37.66-0.89c24.04,1.28,47.99,3.47,71.75,7.47
			c6.32,1.33,12.64,2.65,18.96,3.98c5.27,1.26,10.55,2.52,15.82,3.77c17.72,5.37,35.07,11.77,52.13,18.93
			c7.32,3.98,14.64,7.95,21.97,11.93c12.2,7.96,24.14,16.25,34.37,26.73c1.6,1.64,3.12,3.37,4.68,5.06
			c8.92,11.05,16.33,22.92,19.41,36.99c2.71,12.36,1.87,24.43-2.38,36.47c-2.96,8.4-7.68,15.69-12.26,23.14
			c-0.9,0.41-1.61,0.98-1.75,2.04c-12.58,15.09-27.64,27.2-44.72,36.86c-1.93,1.09-4.07,1.88-5.34,3.87
			c-12.78,5.93-25.6,11.74-38.86,16.59c-16.65,6.09-33.71,10.6-50.99,14.45c-13.34,2.97-26.88,4.7-40.35,6.77
			c-8.24,1.26-16.63,1.9-24.97,2.04c-13.72,0.24-27.42,1.94-41.15,1.04c-23.17-1.52-46.35-2.39-69.33-6.6
			c-16.04-2.94-31.85-6.61-47.64-10.56c-19.15-5.88-37.72-13.25-55.89-21.66c-6.31-3.76-12.63-7.53-18.94-11.29
			c-0.79-0.94-1.59-1.86-3.01-1.66c-5.76-4.73-11.56-9.42-17.27-14.21c-3.88-3.25-7.61-6.67-10.75-10.67
			c-4.93-5.58-9.21-11.63-12.97-18.04c-3.39-5.19-4.38-11.39-7.21-16.82c-0.78-6.07-1.99-12.03-1.92-18.25
			c0.21-16.27,6.16-30.36,15.41-43.35C56.54,148.03,57.79,146.36,59.03,144.68z"/>
		<path class="st22" d="M182.6,200.78c-3.49-3.02-3.71-7.24-3.76-11.3c-0.06-5.25-0.33-10.44-1.65-16.69
			c-3.74,7.99-7.09,15.15-10.43,22.31c-0.34,0.73-0.54,1.57-1,2.21c-1.16,1.62-1.48,4.49-4.3,3.94c-3.37-0.66-1.56-3.57-1.56-5.3
			c0.02-8.45-0.43-16.85-1.26-25.51c-5.54,2.06-10.85,4.02-16.15,6c-2.42,0.9-3.42,1.86-1.16,4.36
			c8.02,8.91,12.71,19.53,15.72,31.06c3.72,14.21,4.3,28.03-3.61,41.15c-4.33,7.17-11.12,10.9-18.98,12.75
			c-6.93,1.63-14.01,2.33-20.93,0.04c-11.23-3.71-17.04-12.38-19.52-23.25c-4.09-17.95,3.34-32.47,14.73-45.61
			c5.77-6.65,12.3-12.36,19.98-16.69c2.63-1.49,2.53-2.94,0.73-5.04c-6.17-7.14-13.54-13-20.42-19.38
			c-10.99-10.18-14.1-22.85-3.06-33.71c7.02-6.91,21.26-7.13,30.11-0.72c5.11,3.71,9.66,7.84,11.31,14.36
			c0.39,1.54,0.44,2.9-0.85,3.37c-1.25,0.45-1.69-1.19-2.18-2.14c-3.85-7.35-9.12-13.14-17.33-15.68
			c-6.6-2.04-17.82,1.71-21.06,7.06c-4.05,6.66-2.83,15.01,3.42,21.08c8.19,7.96,17.12,15.16,24.44,24.01
			c1.36,1.64,2.85,1.04,4.43,0.38c6-2.5,12.02-4.92,18.31-6.62c2.61-0.7,3.35-2.28,3.32-5c-0.14-17.43-0.12-34.85,0.02-52.28
			c0.01-1.64-1.48-4.78,1.39-4.79c2.32-0.01,2.49,2.92,2.49,5.2c-0.02,26.39,0.01,52.78,0.04,79.17c0,0.64,0.06,1.28,0.16,3.4
			c3.58-7.38,6.46-13.63,9.65-19.71c1.19-2.27,1.7-6.47,5.17-5.5c2.96,0.83,2.81,4.62,3.04,7.59c0.57,7.34,1.35,14.66,2.05,21.99
			C184.2,198.75,184.16,200.04,182.6,200.78z"/>
		<path class="st22" d="M416.07,198.26c6.28-6.74,11.1-12.62,14.17-19.74c1.94-4.49,4.09-9.45,9.8-8.84
			c5.72,0.62,5.82,6.27,6.91,10.64c0.12,0.48,0.15,0.98,0.25,1.46c0.4,1.82-0.92,4.96,0.92,5.25c2.66,0.42,2.63-3.15,3.78-4.95
			c1.3-2.02,2.1-4.37,3.15-6.56c0.61-1.27,1.57-2.3,3.07-2c2.01,0.4,1.1,2.17,1.05,3.27c-0.17,4.04-1.66,8-0.66,12.38
			c3.24-6.52,7.05-12.46,11.51-17.97c1.36-1.69,2.81-3.51,5.36-2.6c2.55,0.91,1.93,3.26,1.78,5.11c-0.64,7.8-3.69,15.26-3.03,23.27
			c0.24,2.94,0,5.96,1.34,8.65c0.8,1.62,1.07,2.94-0.82,3.56c-1.92,0.62-2.96-1.26-3.12-2.43c-0.46-3.39-1.91-6.69-1.3-10.19
			c1.15-6.73,1.25-13.65,3.63-20.15c0.37-1.02,0.44-1.86-0.06-2.88c-2.35,0.12-3.19,2.08-4.25,3.64c-3.77,5.54-7.25,11.22-9.4,17.63
			c-0.77,2.29-2.14,4.34-5.06,3.48c-3.07-0.91-2.13-3.7-1.54-5.41c1.01-2.96,0.36-5.82,0.96-9.9c-2.48,4.14-3.44,7.98-7.86,8.78
			c-1.41,0.25-1.86,2.13-2.57,3.46c-1.64,3.06-3.46,6.08-6.46,8.01c-4.89,3.14-10.71,0.26-11.27-5.57
			c-0.18-1.91-0.03-3.86-0.03-6.87c-2.79,3.61-4.9,6.43-7.12,9.17c-1.26,1.55-2.83,3.31-4.99,2.17c-1.61-0.85-1.84-2.84-1.91-4.73
			c-0.29-7.3,1.63-14.31,2.64-21.44c0.3-2.1,1.37-5.23-0.45-5.87c-2.5-0.87-2.62,2.58-3.46,4.27c-3.5,7-6.8,14.09-10.23,21.12
			c-0.49,1.01-1.24,1.89-1.9,2.81c-0.91,1.27-2.28,1.4-3.57,0.99c-1.5-0.47-1.07-1.98-0.91-2.96c1.64-10.06,0.19-20.23,1.11-30.27
			c1.37-14.93,0.49-29.85,0.83-44.76c0.03-1.16,0.06-2.33-0.01-3.48c-0.09-1.55,0.44-2.69,2.11-2.64c1.63,0.04,2.1,1.14,2.03,2.73
			c-0.69,16.06,0.6,32.14-0.8,48.2c-0.59,6.75-0.1,13.59-0.1,21.28c3.23-5.6,6.13-10.61,9.03-15.62c0.4-0.7,0.65-1.55,1.19-2.11
			c1.74-1.81,3-5.13,6.15-3.93c2.63,1,2.54,4.01,2.34,6.5C417.65,180.39,416.91,188.56,416.07,198.26z"/>
		<path class="st23" d="M182.6,200.78c0.42-1.15,0.83-2.3,1.25-3.45c4.34,0.43,5.5-3.04,6.78-5.92c1.77-3.99,3.1-8.18,4.54-12.31
			c1.06-3.05,2.27-5.74,6.24-5.77c3.99-0.02,5.82,2.29,6.83,6.3c0.25-0.99,0.33-1.4,0.46-1.8c0.63-1.96,0.03-5.65,2.86-5.06
			c2.76,0.57,0.26,3.49,0.24,5.37c-0.06,6.14-0.06,12.28-0.11,18.42c-0.01,0.9,0.16,1.74,1.07,2.01c1.01,0.3,2.07-0.02,2.64-0.88
			c3.64-5.56,7.88-10.84,8.29-17.91c0.2-3.43,1.42-6.76,1.03-10.27c-0.12-1.07,0.3-1.97,1.63-1.98c1.53-0.01,1.38,1.13,1.33,2.08
			c-0.39,6.59-0.38,13.23-1.38,19.73c-0.64,4.16-0.23,8.26-0.66,12.35c-0.23,2.18,0.9,3.88,2.48,4.39c2.03,0.66,3.25-1.51,3.98-3.03
			c3.69-7.67,5.5-15.81,4.15-24.26c-0.38-2.38-0.04-3.84,1.93-3.96c2.18-0.13,1.4,2.15,1.43,3.43c0.09,4.33,1.84,8.24,2.81,12.34
			c0.61,2.57,2.2,3.11,4.38,2.78c2.23-0.33,2.73-2.07,2.81-3.97c0.21-4.77-0.28-9.42-1.75-14.03c-0.38-1.19-2.14-3.57,0.65-4.48
			c2.7-0.88,2.49,1.61,3.27,3.09c1.55,2.91,2.21,6.86,6.93,6.49c4.32-0.34,7.37-2.28,8.78-6.49c0.2-0.61,0.26-1.32,1.6-1.32
			c1.92,4.61-1.64,8.84-1.49,14.36c3.34-5.38,5.45-10.43,9.57-14.19c3.26-2.97,4.51-1.49,5.84,1.62c0.97,2.27,0.74,4.62,0.42,6.81
			c-1.36,9.23-1.16,18.47-0.95,27.75c0.05,2.19,0.74,4.17,1.02,6.27c0.15,1.1,0.31,2.5-1.22,2.87c-1.87,0.45-1.48-1.15-1.83-2.16
			c-1.82-5.3-0.81-10.78-0.97-16.16c-0.24-7.99-0.06-15.99-0.06-24.75c-5.84,6.3-9.69,13.02-11.85,20.74
			c-0.26,0.94-0.6,1.86-0.85,2.8c-0.45,1.69-1.07,3.43-3.24,2.75c-2.28-0.72-1.88-2.44-1.45-4.45c1.06-4.85,2.79-9.64,2.49-15.13
			c-4.75,2.91-8.76,1.75-13.02-2.25c1.01,7.03,3.14,13.58-3.03,17.44c-3.95,2.47-6.93-1.16-9.32-4.73c-1.48,4.5-1.5,8.8-3.48,12.57
			c-1.81,3.46-4.08,6.3-8.42,5.45c-4.33-0.84-5.31-4.43-5.56-8.18c-0.18-2.73-0.04-5.49-0.04-9.3c-2.58,3.39-4.4,5.99-6.45,8.41
			c-2.79,3.29-4.77,2.89-6.16-1.21c-0.68-2-1.03-4.1-1.62-6.56c-1.76,2.64-3.68,4.7-6.25,6.11c-2.98,1.64-5.88,1.8-7.85-1.16
			c-1.57-2.36-2.03-2.17-4.21-0.41C187.53,199.25,185.93,202.67,182.6,200.78z"/>
		<path class="st22" d="M502.17,206.5c6.49-6.34,12.61-12.39,18.78-18.38c2.37-2.3,4.97-4.35,7.49-6.49
			c0.55-0.47,1.01-1.28,1.99-0.38c1.05,0.96-0.06,1.43-0.28,2.07c-0.83,2.41-3.43,2.95-5,4.58c-7.34,7.61-14.67,15.24-21.95,22.92
			c-2.1,2.22-1.27,5.13-0.89,7.55c1.98,12.55,1.03,24.9-2.25,37.06c-1.17,4.35-2.96,8.53-8.3,9.97
			c-7.54,2.04-13.97-3.69-12.33-11.31c2.07-9.63,6.06-18.53,11.19-26.82c5.4-8.73,9.1-17.63,7.63-28.19
			c-0.51-3.69-0.08-7.52-1.03-11.66c-2.62,4.32-5.29,8.61-7.83,12.99c-0.94,1.62-1.98,3-3.67,3.89c-4.64,2.45-6.53,1.41-6.52-3.68
			c0.02-7.75-0.33-15.52,0.98-23.23c0.21-1.23-0.31-2.98,1.77-2.83c1.73,0.13,1.25,1.72,1.21,2.74c-0.27,6.77-0.68,13.53-0.92,20.29
			c-0.04,1.18-0.81,2.93,0.82,3.5c1.66,0.58,2.6-0.81,3.48-2.1c5.07-7.41,10.06-14.88,12.55-23.63c0.39-1.37,0.63-2.9,2.15-2.74
			c2.18,0.23,0.87,2.08,0.88,3.19C502.2,186.05,502.17,196.27,502.17,206.5z"/>
		<path class="st23" d="M361.41,160.36c0.01,1.09,0.06,2.04-1.41,2.15c-1.3,0.1-2.63,0.33-3.86,0.75c-2.44,0.82-6.22-1.26-7.24,1.52
			c-1.08,2.92-0.55,6.55-0.26,9.83c0.81,9.15,1.88,18.27,2.81,27.41c0.7,6.85,1.42,13.7,1.93,20.56c0.09,1.17,1.09,3.42-1.2,3.53
			c-2.21,0.11-1.58-2.02-1.73-3.41c-1.65-14.97-3.37-29.93-4.9-44.91c-0.37-3.59-0.28-7.19-0.92-10.8c-0.4-2.27-1.08-2.57-3.05-2.57
			c-4.97,0.01-9.96,0.01-14.91-0.42c-2.87-0.25-2.72,1.72-3.14,3.26c-3.05,11.25-6.03,22.53-9.01,33.8
			c-0.44,1.67-0.74,4.25-2.78,3.65c-2.24-0.67-0.9-2.89-0.4-4.65c3.19-11.2,6.11-22.48,9.45-33.63c0.73-2.43,0.38-2.77-1.86-3.01
			c-2.24-0.24-4.42-0.99-6.63-1.53c-1.93-0.48-2.16-1.97-1.61-3.43c0.6-1.59,1.77-0.82,2.85-0.31c1.02,0.49,2.13,0.86,3.25,1.09
			c3.51,0.73,5.94,0.65,7.24-3.98c3.21-11.39,6.34-22.89,12.19-33.35c1.08-1.94,2.44-3.8,5.03-3.03c1.77,0.52,3.43,1.65,3.18,3.87
			c-0.25,2.23,0.83,4.19,1,6.29c0.73,9,1.62,18.01,1.91,27.03c0.12,3.55,1.7,4.13,4.17,3.19c2.64-1.01,5.24-0.56,7.85-0.79
			C360.71,158.36,361.62,158.84,361.41,160.36z"/>
		<path class="st24" d="M382.06,137.19c0.91,7.64-0.13,14.71,1.08,21.74c0.54,3.12,1.34,3.5,4.09,3.73
			c1.98,0.16,5.83-2.26,5.91,1.72c0.09,4.11-3.89,1.95-5.82,1.93c-3.42-0.03-4,1.23-4,4.31c-0.03,15.03,1.09,30,2.05,44.98
			c0.07,1.16,0.06,2.32,0,3.48c-0.07,1.37,0.55,3.19-1.85,3.25c-2.32,0.06-2.06-1.68-2.12-3.13c-0.35-9.27-0.77-18.55-0.98-27.83
			c-0.16-6.8-0.31-13.62,0.07-20.4c0.22-3.95-1.17-4.89-4.72-4.44c-2.13,0.27-4.35,0.32-6.47,0c-1.75-0.27-4.95,1.63-4.89-2.12
			c0.05-3.39,3.01-1.61,4.63-1.82c2.45-0.32,4.99-0.26,7.47-0.07c2.59,0.2,3.79-0.66,3.27-3.31c-1.18-6.02,0.65-12.21-1.2-18.22
			C377.8,138.49,380.38,138.52,382.06,137.19z"/>
		<path class="st25" d="M369.74,177.54c-2.11,7.28-4.15,14.58-6.35,21.84c-0.8,2.64-1.98,5.16-2.99,7.73
			c-0.43,1.1-0.94,2.38-2.35,2.03c-1.15-0.28-1.75-1.37-1.62-2.69c0.25-2.51-0.87-4.96-0.81-7.33c0.2-7.64-1.2-15.16-1.19-22.76
			c0-1.63-0.26-3.78,2.04-3.73c2.29,0.05,1.68,2.27,2,3.83c1.25,6.04,0.85,12.15,0.99,18.65c3.1-1.88,2.99-5.12,3.79-7.58
			c1.15-3.55,2.46-7.02,3.8-10.5c0.65-1.68,1.58-2.71,3.63-2.68c2.1,0.03,2.89,1.43,3.58,2.9c0.54,1.15,1.1,2.46,1.06,3.68
			c-0.3,9.93,1.8,19.76,1.11,29.7c-0.1,1.48,0.08,3.43-1.85,3.3c-1.75-0.11-1.21-2.12-1.14-3.32c0.57-8.98-1.28-17.86-1-26.81
			C372.52,181.4,371.29,179.58,369.74,177.54z"/>
		<path class="st0" d="M97.73,231.34c-0.62-8.56,3.3-16.48,8.65-23.63c7.12-9.53,15.53-17.85,25.24-24.88
			c2.34-1.69,3.16-1.14,4.65,0.7c12.6,15.54,18.6,33.55,17.28,53.2c-1.27,18.95-15.05,29.88-35.48,25.13
			C104.65,258.73,97.59,245.65,97.73,231.34z"/>
		<path class="st0" d="M432.67,183.4c2.3,3.16,3.63,6.8,7.39,7.89c1.36,0.39,0.68,0.81,0.46,1.59c-1.33,4.77-5.97,9.98-8.06,8.61
			c-4.15-2.74-2.03-7.05-1.64-10.75C431.07,188.41,431.95,186.16,432.67,183.4z"/>
		<path class="st0" d="M443.21,181.67c-0.54,1.23,1.42,4.04-1.42,4.54c-2.58,0.46-3.3-2.35-4.15-4.13
			c-1.23-2.57-1.18-5.46,0.06-8.03c0.51-1.05,2.19-0.92,3.14-0.32C443.67,175.5,443.37,178.43,443.21,181.67z"/>
		<path class="st0" d="M206.77,183.25c-0.45,4.91-1.67,9.48-5.44,13.1c-1.29,1.24-2.71,1.32-4.08,0.85
			c-1.39-0.48-1.57-1.89-1.55-3.32c0.07-6.18,2.93-11.5,5.27-16.95c0.87-2.03,2.37-1.92,3.76-0.06
			C206.16,178.78,206.97,180.81,206.77,183.25z"/>
		<path class="st0" d="M497.74,219.95c2.72,12.4,0.81,23.67-2.58,34.82c-0.71,2.35-2.03,4.39-3.49,6.36
			c-1.21,1.63-2.8,2.59-4.69,1.89c-2.02-0.75-3.81-2.04-3.78-4.64c0.04-3.11-0.12-6.19,0.94-9.26
			C487.61,239.14,492.4,229.82,497.74,219.95z"/>
		<path class="st0" d="M337.02,160.51c-11.63-0.08-11.97-0.46-8.35-11.22c2.47-7.34,5.09-14.64,7.91-21.85
			c0.56-1.43,1.27-4.04,3.55-3.34c1.75,0.53,1.21,2.79,1.36,4.42c0.89,9.32,1.77,18.64,2.83,27.94c0.31,2.75-0.37,4.17-3.31,4.06
			C339.68,160.47,338.35,160.51,337.02,160.51z"/>
	</g>
</g>
<g>
	<g>
		<path class="st26" d="M141.23,89.23c0.04-0.08,0.08-0.15,0.14-0.22c-0.03,0.03-0.05,0.07-0.08,0.1c0.07-0.08,0.14-0.16,0.22-0.22
			c-0.03,0.03-0.07,0.05-0.1,0.08c0.07-0.05,0.14-0.1,0.22-0.14c0.06-0.03,0.11-0.07,0.14-0.13c0.04-0.05,0.07-0.1,0.09-0.17
			c0.02-0.07,0.02-0.13,0.01-0.2c0-0.07-0.02-0.13-0.06-0.19c-0.07-0.11-0.17-0.2-0.3-0.23c-0.04-0.01-0.09-0.01-0.13-0.02
			c-0.09,0-0.17,0.02-0.25,0.07c-0.07,0.03-0.13,0.07-0.19,0.11c-0.09,0.06-0.18,0.13-0.26,0.21c-0.08,0.08-0.15,0.17-0.21,0.26
			c-0.04,0.06-0.08,0.12-0.11,0.19c-0.04,0.06-0.06,0.12-0.06,0.19c-0.01,0.07-0.01,0.13,0.01,0.2c0.02,0.07,0.05,0.12,0.09,0.17
			c0.04,0.05,0.08,0.1,0.14,0.13c0.12,0.06,0.26,0.09,0.39,0.05C141.05,89.42,141.18,89.35,141.23,89.23L141.23,89.23z"/>
	</g>
</g>
<g>
	<g>
		<path d="M140.03,89.81c0.7-0.29,1.4-0.59,2.09-0.88c0.13-0.05,0.23-0.11,0.3-0.23c0.06-0.11,0.09-0.27,0.05-0.39
			c-0.07-0.23-0.36-0.46-0.62-0.35c-0.7,0.29-1.4,0.59-2.09,0.88c-0.13,0.05-0.23,0.11-0.3,0.23c-0.06,0.11-0.09,0.27-0.05,0.39
			C139.49,89.69,139.78,89.92,140.03,89.81L140.03,89.81z"/>
	</g>
</g>
<g>
	<g>
		<path d="M139.86,89.47c0.61-0.09,1.07-0.46,1.56-0.79c0.58-0.39,1.25-0.57,1.9-0.81c1.41-0.5,2.83-1.01,4.24-1.51
			c0.6-0.21,0.34-1.18-0.27-0.96c-1.41,0.5-2.83,1.01-4.24,1.51c-0.65,0.23-1.35,0.42-1.94,0.78c-0.5,0.3-0.92,0.74-1.52,0.82
			c-0.27,0.04-0.41,0.38-0.35,0.62C139.32,89.41,139.59,89.51,139.86,89.47L139.86,89.47z"/>
	</g>
</g>
<g>
	<g>
		<path d="M137.98,92.06c3.71-1.71,7.55-3.11,11.48-4.21c0.62-0.17,0.36-1.14-0.27-0.96c-4.02,1.12-7.93,2.56-11.72,4.31
			C136.89,91.46,137.4,92.33,137.98,92.06L137.98,92.06z"/>
	</g>
</g>
<g>
	<g>
		<path d="M148.54,85.9c-0.16,0.21-0.14,0.25,0.05,0.14c0.11-0.04,0.23-0.08,0.34-0.12c0.2-0.07,0.4-0.14,0.61-0.2
			c0.44-0.14,0.87-0.28,1.31-0.4c0.82-0.24,1.65-0.46,2.47-0.69c1.69-0.47,3.36-0.97,4.97-1.69c0.59-0.26,0.08-1.12-0.5-0.86
			c-1.8,0.8-3.71,1.31-5.61,1.83c-0.94,0.26-1.89,0.52-2.82,0.82c-0.63,0.2-1.77,0.36-1.82,1.18
			C147.5,86.54,148.5,86.54,148.54,85.9L148.54,85.9z"/>
	</g>
</g>
<g>
	<g>
		<path d="M148.86,86.07c1.35-0.85,3.01-1.21,4.52-1.7c1.65-0.53,3.31-1.06,4.96-1.59c0.61-0.2,0.35-1.16-0.27-0.96
			c-1.71,0.55-3.43,1.1-5.14,1.65c-1.53,0.49-3.2,0.87-4.58,1.74C147.81,85.55,148.31,86.42,148.86,86.07L148.86,86.07z"/>
	</g>
</g>
<g>
	<g>
		<path d="M59.04,141.54c0.01-0.02,0.03-0.04,0.04-0.06c0.01-0.01,0.05-0.07,0-0.01c-0.05,0.07,0,0,0.02-0.02
			c0.01-0.01,0.02-0.03,0.04-0.04c0.06-0.07,0.12-0.13,0.18-0.19c0.14-0.13,0.28-0.26,0.42-0.38c0.14-0.13,0.28-0.26,0.42-0.38
			c0.03-0.03,0.07-0.06,0.1-0.09c0.02-0.01,0.03-0.03,0.05-0.04c0.08-0.07-0.07,0.05-0.02,0.01c0.08-0.06,0.16-0.11,0.24-0.16
			c0.23-0.13,0.32-0.46,0.18-0.68c-0.15-0.23-0.44-0.32-0.68-0.18c-0.37,0.21-0.68,0.52-1,0.81c-0.31,0.28-0.62,0.55-0.85,0.9
			c-0.14,0.22-0.05,0.56,0.18,0.68C58.6,141.86,58.88,141.78,59.04,141.54L59.04,141.54z"/>
	</g>
</g>
<g>
	<g>
		<path d="M59.41,141.13c0.01-0.03,0.01-0.06,0.03-0.09c-0.02,0.04-0.03,0.08-0.05,0.12c0.02-0.03,0.04-0.07,0.06-0.1
			c-0.03,0.03-0.05,0.07-0.08,0.1c0.09-0.12,0.22-0.22,0.33-0.32c0.13-0.11,0.27-0.22,0.4-0.33c0.27-0.22,0.59-0.42,0.76-0.74
			c0.1-0.19,0.09-0.45-0.08-0.61c-0.06-0.06-0.14-0.1-0.22-0.13c-0.13-0.04-0.27,0-0.39,0.05c-0.16,0.07-0.28,0.2-0.39,0.35
			c-0.07,0.1-0.08,0.27-0.05,0.39c0.03,0.12,0.12,0.24,0.23,0.3c0.12,0.06,0.26,0.09,0.39,0.05c0.13-0.04,0.22-0.12,0.3-0.23
			c0-0.01,0.01-0.01,0.01-0.02c-0.03,0.03-0.05,0.07-0.08,0.1c0.03-0.04,0.06-0.07,0.1-0.09c-0.03,0.03-0.07,0.05-0.1,0.08
			c0.03-0.02,0.06-0.04,0.1-0.06c-0.23-0.23-0.46-0.46-0.68-0.68c-0.02,0.04-0.04,0.07-0.07,0.1c0.03-0.03,0.05-0.07,0.08-0.1
			c-0.1,0.13-0.24,0.23-0.37,0.34c-0.14,0.11-0.29,0.22-0.43,0.34c-0.29,0.23-0.69,0.51-0.76,0.9c-0.03,0.13-0.02,0.26,0.05,0.39
			c0.06,0.1,0.18,0.2,0.3,0.23C59.04,141.53,59.36,141.4,59.41,141.13L59.41,141.13z"/>
	</g>
</g>
<g>
	<g>
		<path d="M58.41,141.94c0.64,0,0.64-1,0-1C57.76,140.94,57.76,141.94,58.41,141.94L58.41,141.94z"/>
	</g>
</g>
<g>
	<g>
		<path d="M58.31,142.08c0.64,0,0.64-1,0-1C57.67,141.08,57.66,142.08,58.31,142.08L58.31,142.08z"/>
	</g>
</g>
<g>
	<g>
		<path d="M56.83,145.1c0.28-0.58,0.56-1.2,1-1.68c0.23-0.25,0.48-0.46,0.69-0.73c0.23-0.29,0.43-0.59,0.63-0.9
			c0.3-0.48-0.4-1.02-0.79-0.61c-1.35,1.45-2.59,3-3.71,4.63c-0.15,0.22-0.04,0.55,0.18,0.68c0.25,0.15,0.53,0.04,0.68-0.18
			c1.08-1.56,2.27-3.04,3.56-4.43c-0.26-0.2-0.52-0.4-0.79-0.61c-0.18,0.28-0.36,0.57-0.57,0.82c-0.22,0.25-0.48,0.47-0.69,0.72
			c-0.45,0.53-0.76,1.14-1.06,1.76c-0.12,0.24-0.07,0.54,0.18,0.68C56.36,145.4,56.71,145.34,56.83,145.1L56.83,145.1z"/>
	</g>
</g>
<g>
	<g>
		<path d="M57.87,141.57c0-0.01-0.01-0.02-0.01-0.03c0.04-0.07,0.09-0.15,0.13-0.22c-0.01,0.01-0.03,0.02-0.04,0.03
			c0.12-0.05,0.24-0.1,0.35-0.15c-0.01,0-0.02,0-0.04,0c0.12,0.05,0.24,0.1,0.35,0.15c-0.01-0.01-0.02-0.02-0.03-0.03
			c0.04,0.07,0.09,0.15,0.13,0.22c0-0.01-0.01-0.02-0.01-0.03c-0.04,0.16-0.09,0.32-0.13,0.49c0.01-0.01,0.01-0.01,0.02-0.02
			c-0.26-0.2-0.52-0.4-0.79-0.61c-0.46,0.77-1,1.46-1.59,2.13c-0.6,0.69-1.04,1.46-1.46,2.26c-0.3,0.57,0.57,1.08,0.86,0.5
			c0.41-0.78,0.83-1.52,1.42-2.18c0.61-0.69,1.16-1.42,1.63-2.21c0.29-0.49-0.38-1.01-0.79-0.61c-0.29,0.29-0.17,0.81,0.24,0.92
			c0.18,0.05,0.38,0,0.52-0.13c0.15-0.14,0.19-0.3,0.21-0.5c0.03-0.27-0.25-0.5-0.5-0.5C58.07,141.07,57.9,141.3,57.87,141.57
			L57.87,141.57z"/>
	</g>
</g>
<g>
	<g>
		<path d="M159.06,82.51c3.15-0.92,6.28-1.91,9.39-2.97c0.61-0.21,0.35-1.17-0.27-0.96c-3.11,1.06-6.24,2.06-9.39,2.97
			C158.18,81.72,158.44,82.69,159.06,82.51L159.06,82.51z"/>
	</g>
</g>
<g>
	<g>
		<path d="M139.51,91.36c2.54-0.72,5.04-1.59,7.48-2.6c0.25-0.1,0.42-0.33,0.35-0.62c-0.06-0.24-0.37-0.45-0.62-0.35
			c-2.44,1.01-4.94,1.88-7.48,2.6C138.63,90.57,138.89,91.53,139.51,91.36L139.51,91.36z"/>
	</g>
</g>
<g>
	<g>
		<path d="M39.97,206.66c-0.05,0.46-0.06,0.91-0.03,1.37c0.01,0.13,0.05,0.26,0.15,0.35c0.09,0.09,0.23,0.15,0.35,0.15
			c0.26-0.01,0.52-0.22,0.5-0.5c-0.03-0.46-0.02-0.92,0.03-1.37c0.01-0.12-0.07-0.27-0.15-0.35c-0.09-0.09-0.23-0.15-0.35-0.15
			c-0.13,0.01-0.26,0.05-0.35,0.15c-0.03,0.03-0.05,0.07-0.08,0.1C39.99,206.49,39.97,206.57,39.97,206.66L39.97,206.66z"/>
	</g>
</g>
<g>
	<g>
		<path d="M42.52,213.39c-0.1-1.61-0.78-3.07-1.47-4.5c-0.12-0.24-0.46-0.31-0.68-0.18c-0.25,0.15-0.3,0.44-0.18,0.68
			c0.61,1.26,1.25,2.57,1.34,4c0.02,0.27,0.22,0.5,0.5,0.5C42.28,213.89,42.54,213.66,42.52,213.39L42.52,213.39z"/>
	</g>
</g>
<g>
	<g>
		<path d="M40.1,208.81c0.68,0.59,0.74,1.67,0.89,2.5c0.18,1.04,0.54,2.01,0.93,2.99c0.1,0.25,0.33,0.43,0.62,0.35
			c0.24-0.07,0.45-0.36,0.35-0.62c-0.42-1.04-0.78-2.07-0.97-3.18c-0.16-0.95-0.34-2.07-1.11-2.74
			C40.33,207.68,39.62,208.39,40.1,208.81L40.1,208.81z"/>
	</g>
</g>
<g>
	<g>
		<path d="M83.55,267.48c0.1,0.03,0.2,0.07,0.29,0.1c0.07,0.02,0.13,0.02,0.2,0.01c0.07,0,0.13-0.02,0.19-0.06
			c0.06-0.03,0.11-0.07,0.14-0.13c0.04-0.05,0.07-0.1,0.09-0.17c0.01-0.04,0.01-0.09,0.02-0.13c0-0.09-0.02-0.17-0.07-0.25
			c-0.03-0.03-0.05-0.07-0.08-0.1c-0.06-0.06-0.14-0.1-0.22-0.13c-0.1-0.03-0.2-0.07-0.29-0.1c-0.07-0.02-0.13-0.02-0.2-0.01
			c-0.07,0-0.13,0.02-0.19,0.06c-0.06,0.03-0.11,0.07-0.14,0.13c-0.04,0.05-0.07,0.1-0.09,0.17c-0.01,0.04-0.01,0.09-0.02,0.13
			c0,0.09,0.02,0.17,0.07,0.25c0.03,0.03,0.05,0.07,0.08,0.1C83.39,267.41,83.46,267.46,83.55,267.48L83.55,267.48z"/>
	</g>
</g>
<g>
	<g>
		<path d="M91.65,271.29c-2.51-1.3-4.91-2.83-7.14-4.58c-0.21-0.17-0.5-0.2-0.71,0c-0.18,0.17-0.21,0.54,0,0.71
			c2.29,1.81,4.74,3.4,7.34,4.74C91.72,272.45,92.22,271.58,91.65,271.29L91.65,271.29z"/>
	</g>
</g>
<g>
	<g>
		<path d="M90.8,271.96c0.68,0.22,1.24,0.62,1.8,1.06c0.61,0.48,1.21,0.95,1.82,1.42c1.21,0.92,2.46,1.79,3.83,2.46
			c0.58,0.28,1.08-0.58,0.5-0.86c-1.41-0.69-2.69-1.59-3.94-2.55c-1.19-0.91-2.31-2.02-3.75-2.5
			C90.46,270.8,90.19,271.76,90.8,271.96L90.8,271.96z"/>
	</g>
</g>
<g>
	<g>
		<path d="M84.68,269.93c1.15,0.99,2.29,1.99,3.45,2.97c1.16,0.98,2.45,1.75,3.74,2.55c2.61,1.62,5.18,3.36,7.91,4.75
			c0.57,0.29,1.08-0.57,0.5-0.86c-2.66-1.36-5.17-3.05-7.7-4.62c-1.28-0.8-2.59-1.55-3.75-2.53c-1.16-0.98-2.3-1.98-3.45-2.97
			C84.9,268.81,84.19,269.51,84.68,269.93L84.68,269.93z"/>
	</g>
</g>
<g>
	<g>
		<path d="M169.07,307.81c-0.87,0.01-1.71-0.24-2.54-0.49c-0.77-0.23-1.53-0.48-2.28-0.74c-1.6-0.56-3.24-1.06-4.8-1.72
			c-0.59-0.25-1.1,0.61-0.5,0.86c1.64,0.7,3.36,1.24,5.04,1.82c1.6,0.55,3.37,1.3,5.09,1.27
			C169.72,308.8,169.72,307.8,169.07,307.81L169.07,307.81z"/>
	</g>
</g>
<g>
	<g>
		<path d="M164.32,307.53c0.25,0.17,0.55,0.21,0.84,0.28c0.13,0.03,0.26,0.07,0.38,0.12c0.05,0.02-0.05-0.02,0.03,0.01
			c0.03,0.01,0.06,0.03,0.09,0.04c0.06,0.03,0.13,0.06,0.19,0.1c0.51,0.26,1,0.58,1.56,0.69c0.26,0.05,0.55-0.07,0.62-0.35
			c0.06-0.25-0.08-0.56-0.35-0.62c-0.13-0.03-0.26-0.06-0.38-0.11c-0.01,0-0.09-0.04-0.05-0.02c0.05,0.02-0.04-0.02-0.05-0.02
			c-0.06-0.03-0.11-0.05-0.17-0.08c-0.24-0.12-0.47-0.26-0.71-0.38c-0.25-0.13-0.52-0.25-0.8-0.32c-0.12-0.03-0.25-0.05-0.37-0.08
			c-0.07-0.02-0.14-0.04-0.21-0.06c-0.07-0.01,0.05,0.03-0.01,0c-0.03-0.02-0.07-0.04-0.1-0.06c-0.22-0.14-0.56-0.05-0.68,0.18
			C164.01,307.1,164.09,307.38,164.32,307.53L164.32,307.53z"/>
	</g>
</g>
<g>
	<g>
		<path d="M478.22,284.53c2.06-1.1,4.09-2.26,6.08-3.49c0.55-0.34,0.05-1.2-0.5-0.86c-1.99,1.22-4.02,2.39-6.08,3.49
			C477.15,283.97,477.66,284.83,478.22,284.53L478.22,284.53z"/>
	</g>
</g>
<g>
	<g>
		<path d="M484.53,279.22c-1.08,0.43-2.01,1.15-2.97,1.79c-1.04,0.69-2.1,1.36-3.21,1.94c-1.06,0.56-2.18,0.98-3.24,1.55
			c-1.14,0.61-2.19,1.39-3.23,2.17c-0.51,0.38-0.01,1.25,0.5,0.86c0.98-0.73,1.96-1.46,3.03-2.06c1.05-0.58,2.17-1,3.24-1.55
			c1.08-0.56,2.11-1.2,3.13-1.86c0.97-0.64,1.93-1.45,3.02-1.87C485.38,279.95,485.13,278.98,484.53,279.22L484.53,279.22z"/>
	</g>
</g>
<g>
	<g>
		<path d="M481.44,283.52c-0.97,0.83-2.07,1.41-3.26,1.86c-1.31,0.49-2.62,0.96-3.93,1.45c-0.6,0.22-0.34,1.19,0.27,0.96
			c1.4-0.51,2.8-1.01,4.19-1.54c1.27-0.48,2.41-1.13,3.44-2.01C482.63,283.81,481.92,283.1,481.44,283.52L481.44,283.52z"/>
	</g>
</g>
<g>
	<g>
		<path d="M478.8,285.03c-0.51,0.5-1.18,0.77-1.82,1.06c-0.7,0.31-1.4,0.61-2.11,0.89c-1.45,0.58-2.92,1.1-4.41,1.58
			c-0.61,0.19-0.35,1.16,0.27,0.96c1.59-0.51,3.16-1.07,4.71-1.7c0.74-0.3,1.47-0.61,2.2-0.94c0.68-0.3,1.34-0.62,1.88-1.15
			C479.97,285.29,479.27,284.58,478.8,285.03L478.8,285.03z"/>
	</g>
</g>
<g>
	<g>
		<path d="M532.7,240.48c0.04-0.07,0.08-0.14,0.13-0.2c0.01-0.01,0.07-0.1,0.03-0.05c0.02-0.03,0.04-0.06,0.07-0.08
			c0.1-0.12,0.21-0.24,0.32-0.36c0.24-0.25,0.49-0.5,0.72-0.75c0.49-0.54,0.96-1.11,1.39-1.7c0.16-0.21,0.04-0.57-0.18-0.68
			c-0.26-0.14-0.52-0.05-0.68,0.18c-0.39,0.54-0.84,1.07-1.31,1.58c-0.47,0.5-1,0.96-1.35,1.56c-0.13,0.23-0.06,0.56,0.18,0.68
			C532.26,240.79,532.56,240.72,532.7,240.48L532.7,240.48z"/>
	</g>
</g>
<g>
	<g>
		<path d="M532.28,239.56c-2.11,2.62-4.22,5.23-6.33,7.85c-0.4,0.5,0.3,1.21,0.71,0.71c2.11-2.62,4.22-5.23,6.33-7.85
			C533.39,239.77,532.68,239.06,532.28,239.56L532.28,239.56z"/>
	</g>
</g>
<g>
	<g>
		<path d="M537,236.64c-2.19,3.24-4.68,6.25-7.44,9.01c-0.46,0.46,0.25,1.16,0.71,0.71c2.82-2.82,5.37-5.91,7.6-9.21
			C538.23,236.61,537.36,236.11,537,236.64L537,236.64z"/>
	</g>
</g>
<g>
	<g>
		<path d="M536.43,237.51c-1.69,3.96-5.31,6.55-7.89,9.87c-0.39,0.5,0.31,1.21,0.71,0.71c2.63-3.39,6.32-6.03,8.05-10.07
			C537.55,237.43,536.69,236.92,536.43,237.51L536.43,237.51z"/>
	</g>
</g>
<g>
	<g>
		<path d="M459.86,93.71c1.85,0.92,3.71,1.85,5.56,2.77c1.77,0.88,3.56,1.73,5.46,2.26c0.62,0.17,0.89-0.79,0.27-0.96
			c-1.89-0.52-3.66-1.38-5.41-2.25c-1.79-0.89-3.59-1.79-5.38-2.68C459.79,92.56,459.28,93.42,459.86,93.71L459.86,93.71z"/>
	</g>
</g>
<g>
	<g>
		<path d="M470.87,97.6c-3.99-1.86-8.05-3.54-12.16-5.13c-0.6-0.23-0.86,0.73-0.27,0.96c4.02,1.56,8.01,3.2,11.92,5.03
			C470.95,98.73,471.46,97.87,470.87,97.6L470.87,97.6z"/>
	</g>
</g>
<g>
	<g>
		<path d="M457.95,92.98c0.04-0.01,0.07-0.01,0.11-0.02c-0.04,0.01-0.03,0.01,0.03,0c0.05,0,0.11,0,0.16,0
			c0.1,0-0.01-0.01,0.08,0.01c0.07,0.01,0.14,0.03,0.21,0.05c0.02,0.01,0.03,0.01,0.05,0.02c-0.04-0.02-0.02-0.01,0.03,0.01
			c0.05,0.02,0.1,0.05,0.15,0.07c0.12,0.06,0.24,0.12,0.36,0.18c0.47,0.24,0.94,0.47,1.41,0.71c0.23,0.12,0.55,0.07,0.68-0.18
			c0.12-0.23,0.07-0.56-0.18-0.68c-0.52-0.26-1.05-0.53-1.57-0.79c-0.27-0.13-0.54-0.28-0.83-0.35c-0.32-0.07-0.64-0.07-0.96,0
			c-0.26,0.05-0.43,0.37-0.35,0.62C457.42,92.9,457.67,93.03,457.95,92.98L457.95,92.98z"/>
	</g>
</g>
<g>
	<g>
		<path d="M458.77,92.12c-1.73-0.85-3.53-1.57-5.38-2.15c-0.62-0.19-0.88,0.77-0.27,0.96c1.76,0.55,3.48,1.23,5.14,2.05
			c0.24,0.12,0.54,0.07,0.68-0.18C459.07,92.58,459.01,92.24,458.77,92.12L458.77,92.12z"/>
	</g>
</g>
<g>
	<g>
		<path d="M457.03,92.43c3.34,0.99,6.14,3.26,9.52,4.18c0.62,0.17,0.89-0.8,0.27-0.96c-3.37-0.92-6.17-3.19-9.52-4.18
			C456.67,91.28,456.41,92.25,457.03,92.43L457.03,92.43z"/>
	</g>
</g>
<g>
	<g>
		<path d="M376.36,69.75c4.79,0.9,9.58,1.79,14.37,2.69c4.69,0.88,9.28,1.96,13.85,3.33c0.62,0.19,0.88-0.78,0.27-0.96
			c-4.57-1.37-9.16-2.46-13.85-3.33c-4.79-0.9-9.58-1.79-14.37-2.69C376,68.67,375.73,69.63,376.36,69.75L376.36,69.75z"/>
	</g>
</g>
<g>
	<g>
		<path d="M276.8,63.27c3.81-0.59,7.69-0.43,11.53-0.28c0.64,0.03,0.64-0.97,0-1c-3.94-0.16-7.88-0.28-11.79,0.32
			C275.9,62.41,276.16,63.37,276.8,63.27L276.8,63.27z"/>
	</g>
</g>
<g>
	<g>
		<path d="M275.51,62.98c10.16-0.76,20.36-0.8,30.52-0.1c0.64,0.04,0.64-0.96,0-1c-10.16-0.7-20.36-0.66-30.52,0.1
			C274.87,62.03,274.87,63.03,275.51,62.98L275.51,62.98z"/>
	</g>
</g>
</svg>
